<?xml version="1.0" encoding="UTF-8" standalone="no"?>
<!DOCTYPE svg PUBLIC "-//W3C//DTD SVG 1.1//EN"
 "http://www.w3.org/Graphics/SVG/1.1/DTD/svg11.dtd">
<!-- Generated by graphviz version 12.2.1 (20241206.2353)
 -->
<!-- Title: G Pages: 1 -->
<svg width="1280pt" height="2912pt"
 viewBox="0.00 0.00 708.91 1612.85" xmlns="http://www.w3.org/2000/svg" xmlns:xlink="http://www.w3.org/1999/xlink">
<g id="graph0" class="graph" transform="scale(1.80556 1.80556) rotate(0) translate(25.2 1587.65)">
<title>G</title>
<polygon fill="#f8fafc" stroke="none" points="-25.2,25.2 -25.2,-1587.65 683.71,-1587.65 683.71,25.2 -25.2,25.2"/>
<text text-anchor="middle" x="329.25" y="-1534.7" font-family="PingFang SC" font-size="25.00" fill="#0f172a">calcu_max_probs_w_kv()</text>
<text text-anchor="middle" x="329.25" y="-1498.7" font-family="PingFang SC" font-size="25.00" fill="#0f172a">一次检查点中的逐 token 试答</text>
<!-- a -->
<g id="node1" class="node">
<title>a</title>
<path fill="#e0f2fe" stroke="#0284c7" stroke-width="1.4" d="M574.67,-1482.45C574.67,-1482.45 227,-1482.45 227,-1482.45 221,-1482.45 215,-1476.45 215,-1470.45 215,-1470.45 215,-1427.67 215,-1427.67 215,-1421.67 221,-1415.67 227,-1415.67 227,-1415.67 574.67,-1415.67 574.67,-1415.67 580.67,-1415.67 586.67,-1421.67 586.67,-1427.67 586.67,-1427.67 586.67,-1470.45 586.67,-1470.45 586.67,-1476.45 580.67,-1482.45 574.67,-1482.45"/>
<text text-anchor="middle" x="400.84" y="-1457.66" font-family="PingFang SC" font-size="17.00" fill="#0f172a">输入：pred_input_ids、kv_cache、tokenizer</text>
<text text-anchor="middle" x="400.84" y="-1432.91" font-family="PingFang SC" font-size="17.00" fill="#0f172a">method、tot_step_cap、model</text>
</g>
<!-- b -->
<g id="node2" class="node">
<title>b</title>
<path fill="#ffffff" stroke="#cbd5e1" stroke-width="1.4" d="M564.92,-1388.67C564.92,-1388.67 236.75,-1388.67 236.75,-1388.67 230.75,-1388.67 224.75,-1382.67 224.75,-1376.67 224.75,-1376.67 224.75,-1309.14 224.75,-1309.14 224.75,-1303.14 230.75,-1297.14 236.75,-1297.14 236.75,-1297.14 564.92,-1297.14 564.92,-1297.14 570.92,-1297.14 576.92,-1303.14 576.92,-1309.14 576.92,-1309.14 576.92,-1376.67 576.92,-1376.67 576.92,-1382.67 570.92,-1388.67 564.92,-1388.67"/>
<text text-anchor="middle" x="400.84" y="-1363.88" font-family="PingFang SC" font-size="17.00" fill="#0f172a">设置停止token ID列表</text>
<text text-anchor="middle" x="400.84" y="-1339.13" font-family="PingFang SC" font-size="17.00" fill="#0f172a">method=0：编码 &lt;/think&gt;</text>
<text text-anchor="middle" x="400.84" y="-1314.38" font-family="PingFang SC" font-size="17.00" fill="#0f172a">method=1：还编码指定的换行/标点字符串</text>
</g>
<!-- a&#45;&gt;b -->
<g id="edge1" class="edge">
<title>a&#45;&gt;b</title>
<path fill="none" stroke="#64748b" stroke-width="1.4" d="M400.84,-1415.39C400.84,-1409.78 400.84,-1403.82 400.84,-1397.82"/>
<polygon fill="#64748b" stroke="#64748b" stroke-width="1.4" points="403.29,-1398.17 400.84,-1391.17 398.39,-1398.17 403.29,-1398.17"/>
</g>
<!-- c -->
<g id="node3" class="node">
<title>c</title>
<path fill="#ffffff" stroke="#cbd5e1" stroke-width="1.4" d="M588.92,-1270.14C588.92,-1270.14 212.75,-1270.14 212.75,-1270.14 206.75,-1270.14 200.75,-1264.14 200.75,-1258.14 200.75,-1258.14 200.75,-1190.61 200.75,-1190.61 200.75,-1184.61 206.75,-1178.61 212.75,-1178.61 212.75,-1178.61 588.92,-1178.61 588.92,-1178.61 594.92,-1178.61 600.92,-1184.61 600.92,-1190.61 600.92,-1190.61 600.92,-1258.14 600.92,-1258.14 600.92,-1264.14 594.92,-1270.14 588.92,-1270.14"/>
<text text-anchor="middle" x="400.84" y="-1245.35" font-family="PingFang SC" font-size="17.00" fill="#0f172a">初始化：last_token=&#45;1，n=0，累计值S=0</text>
<text text-anchor="middle" x="400.84" y="-1220.6" font-family="PingFang SC" font-size="17.00" fill="#0f172a">两个空列表：pred_tokens、token_probs</text>
<text text-anchor="middle" x="400.84" y="-1195.85" font-family="PingFang SC" font-size="17.00" fill="#0f172a">有输入KV则深拷贝并移到输入设备；否则为None</text>
</g>
<!-- b&#45;&gt;c -->
<g id="edge2" class="edge">
<title>b&#45;&gt;c</title>
<path fill="none" stroke="#64748b" stroke-width="1.4" d="M400.84,-1296.85C400.84,-1291.14 400.84,-1285.24 400.84,-1279.4"/>
<polygon fill="#64748b" stroke="#64748b" stroke-width="1.4" points="403.29,-1279.43 400.84,-1272.43 398.39,-1279.43 403.29,-1279.43"/>
</g>
<!-- d -->
<g id="node4" class="node">
<title>d</title>
<path fill="#fef3c7" stroke="#d97706" stroke-width="1.4" d="M388.99,-1149.68C388.99,-1149.68 155.01,-1111.51 155.01,-1111.51 149.09,-1110.55 149.09,-1108.61 155.01,-1107.65 155.01,-1107.65 388.99,-1069.48 388.99,-1069.48 394.91,-1068.52 406.76,-1068.52 412.68,-1069.48 412.68,-1069.48 646.66,-1107.65 646.66,-1107.65 652.58,-1108.61 652.58,-1110.55 646.66,-1111.51 646.66,-1111.51 412.68,-1149.68 412.68,-1149.68 406.76,-1150.64 394.91,-1150.64 388.99,-1149.68"/>
<text text-anchor="middle" x="400.84" y="-1105.8" font-family="PingFang SC" font-size="17.00" fill="#0f172a">last_token 已在 stop_ids 中？</text>
</g>
<!-- c&#45;&gt;d -->
<g id="edge3" class="edge">
<title>c&#45;&gt;d</title>
<path fill="none" stroke="#64748b" stroke-width="1.4" d="M400.84,-1178.15C400.84,-1172.44 400.84,-1166.56 400.84,-1160.78"/>
<polygon fill="#64748b" stroke="#64748b" stroke-width="1.4" points="403.29,-1160.92 400.84,-1153.92 398.39,-1160.92 403.29,-1160.92"/>
</g>
<!-- e -->
<g id="node5" class="node">
<title>e</title>
<path fill="#ffffff" stroke="#cbd5e1" stroke-width="1.4" d="M348.92,-1021.3C348.92,-1021.3 50.75,-1021.3 50.75,-1021.3 44.75,-1021.3 38.75,-1015.3 38.75,-1009.3 38.75,-1009.3 38.75,-941.77 38.75,-941.77 38.75,-935.77 44.75,-929.77 50.75,-929.77 50.75,-929.77 348.92,-929.77 348.92,-929.77 354.92,-929.77 360.92,-935.77 360.92,-941.77 360.92,-941.77 360.92,-1009.3 360.92,-1009.3 360.92,-1015.3 354.92,-1021.3 348.92,-1021.3"/>
<text text-anchor="middle" x="199.84" y="-996.51" font-family="PingFang SC" font-size="17.00" fill="#0f172a">选择本轮模型输入</text>
<text text-anchor="middle" x="199.84" y="-971.76" font-family="PingFang SC" font-size="17.00" fill="#0f172a">首次：pred_input_ids + 当前KV</text>
<text text-anchor="middle" x="199.84" y="-947.01" font-family="PingFang SC" font-size="17.00" fill="#0f172a">随后：上次生成的单个token + 当前KV</text>
</g>
<!-- d&#45;&gt;e -->
<g id="edge4" class="edge">
<title>d&#45;&gt;e</title>
<path fill="none" stroke="#64748b" stroke-width="1.4" d="M350.37,-1075.43C327.83,-1060.62 300.78,-1042.85 275.86,-1026.48"/>
<polygon fill="#64748b" stroke="#64748b" stroke-width="1.4" points="277.51,-1024.63 270.32,-1022.84 274.82,-1028.73 277.51,-1024.63"/>
<text text-anchor="middle" x="325.46" y="-1041.25" font-family="PingFang SC" font-size="14.00" fill="#475569">否</text>
</g>
<!-- j -->
<g id="node10" class="node">
<title>j</title>
<path fill="#ffffff" stroke="#cbd5e1" stroke-width="1.4" d="M541.17,-397.62C541.17,-397.62 196.5,-397.62 196.5,-397.62 190.5,-397.62 184.5,-391.62 184.5,-385.62 184.5,-385.62 184.5,-318.09 184.5,-318.09 184.5,-312.09 190.5,-306.09 196.5,-306.09 196.5,-306.09 541.17,-306.09 541.17,-306.09 547.17,-306.09 553.17,-312.09 553.17,-318.09 553.17,-318.09 553.17,-385.62 553.17,-385.62 553.17,-391.62 547.17,-397.62 541.17,-397.62"/>
<text text-anchor="middle" x="368.84" y="-372.83" font-family="PingFang SC" font-size="17.00" fill="#0f172a">退出循环</text>
<text text-anchor="middle" x="368.84" y="-348.08" font-family="PingFang SC" font-size="17.00" fill="#0f172a">ended_with_think = (last_token in stop_ids)</text>
<text text-anchor="middle" x="368.84" y="-323.33" font-family="PingFang SC" font-size="17.00" fill="#0f172a">按现有公式计算最终分数（见算例图）</text>
</g>
<!-- d&#45;&gt;j -->
<g id="edge11" class="edge">
<title>d&#45;&gt;j</title>
<path fill="none" stroke="#64748b" stroke-width="1.4" d="M434.15,-1072.57C453.8,-1047.56 474.84,-1012.41 474.84,-976.53 474.84,-976.53 474.84,-976.53 474.84,-484.9 474.84,-454 456.96,-426.21 435.89,-404.19"/>
<polygon fill="#64748b" stroke="#64748b" stroke-width="1.4" points="437.74,-402.57 431.07,-399.34 434.27,-406.03 437.74,-402.57"/>
<text text-anchor="middle" x="481.96" y="-716.05" font-family="PingFang SC" font-size="14.00" fill="#475569">是</text>
</g>
<!-- f -->
<g id="node6" class="node">
<title>f</title>
<path fill="#ede9fe" stroke="#8b5cf6" stroke-width="1.4" d="M353.67,-902.77C353.67,-902.77 12,-902.77 12,-902.77 6,-902.77 0,-896.77 0,-890.77 0,-890.77 0,-823.24 0,-823.24 0,-817.24 6,-811.24 12,-811.24 12,-811.24 353.67,-811.24 353.67,-811.24 359.67,-811.24 365.67,-817.24 365.67,-823.24 365.67,-823.24 365.67,-890.77 365.67,-890.77 365.67,-896.77 359.67,-902.77 353.67,-902.77"/>
<text text-anchor="middle" x="182.84" y="-877.98" font-family="PingFang SC" font-size="17.00" fill="#0f172a">model(...) 前向计算，并更新本次试答的KV</text>
<text text-anchor="middle" x="182.84" y="-853.23" font-family="PingFang SC" font-size="17.00" fill="#0f172a">取最后位置 logits → softmax → torch.max</text>
<text text-anchor="middle" x="182.84" y="-828.48" font-family="PingFang SC" font-size="17.00" fill="#0f172a">选出 max_index 与 max_value（贪心选取）</text>
</g>
<!-- e&#45;&gt;f -->
<g id="edge5" class="edge">
<title>e&#45;&gt;f</title>
<path fill="none" stroke="#64748b" stroke-width="1.4" d="M193.26,-929.48C192.41,-923.63 191.53,-917.59 190.66,-911.62"/>
<polygon fill="#64748b" stroke="#64748b" stroke-width="1.4" points="193.13,-911.61 189.7,-905.04 188.28,-912.32 193.13,-911.61"/>
</g>
<!-- g -->
<g id="node7" class="node">
<title>g</title>
<path fill="#ffffff" stroke="#cbd5e1" stroke-width="1.4" d="M352.92,-764.99C352.92,-764.99 18.75,-764.99 18.75,-764.99 12.75,-764.99 6.75,-758.99 6.75,-752.99 6.75,-752.99 6.75,-685.46 6.75,-685.46 6.75,-679.46 12.75,-673.46 18.75,-673.46 18.75,-673.46 352.92,-673.46 352.92,-673.46 358.92,-673.46 364.92,-679.46 364.92,-685.46 364.92,-685.46 364.92,-752.99 364.92,-752.99 364.92,-758.99 358.92,-764.99 352.92,-764.99"/>
<text text-anchor="middle" x="185.84" y="-740.2" font-family="PingFang SC" font-size="17.00" fill="#0f172a">先累计，再更新 last_token</text>
<text text-anchor="middle" x="185.84" y="-715.45" font-family="PingFang SC" font-size="17.00" fill="#0f172a">此前last_token=&#45;1：S不变</text>
<text text-anchor="middle" x="185.84" y="-690.7" font-family="PingFang SC" font-size="17.00" fill="#0f172a">其他轮：method=0加log(p)，method=1加p</text>
</g>
<!-- f&#45;&gt;g -->
<g id="edge6" class="edge">
<title>f&#45;&gt;g</title>
<path fill="none" stroke="#64748b" stroke-width="1.4" d="M183.83,-810.79C184.09,-799.11 184.37,-786.42 184.64,-774.34"/>
<polygon fill="#64748b" stroke="#64748b" stroke-width="1.4" points="187.09,-774.41 184.79,-767.36 182.19,-774.3 187.09,-774.41"/>
</g>
<!-- h -->
<g id="node8" class="node">
<title>h</title>
<path fill="#ffffff" stroke="#cbd5e1" stroke-width="1.4" d="M332.42,-646.46C332.42,-646.46 97.25,-646.46 97.25,-646.46 91.25,-646.46 85.25,-640.46 85.25,-634.46 85.25,-634.46 85.25,-566.93 85.25,-566.93 85.25,-560.93 91.25,-554.93 97.25,-554.93 97.25,-554.93 332.42,-554.93 332.42,-554.93 338.42,-554.93 344.42,-560.93 344.42,-566.93 344.42,-566.93 344.42,-634.46 344.42,-634.46 344.42,-640.46 338.42,-646.46 332.42,-646.46"/>
<text text-anchor="middle" x="214.84" y="-621.67" font-family="PingFang SC" font-size="17.00" fill="#0f172a">每一轮都保存 token ID 与概率</text>
<text text-anchor="middle" x="214.84" y="-596.92" font-family="PingFang SC" font-size="17.00" fill="#0f172a">last_token = max_index</text>
<text text-anchor="middle" x="214.84" y="-572.17" font-family="PingFang SC" font-size="17.00" fill="#0f172a">n = n + 1</text>
</g>
<!-- g&#45;&gt;h -->
<g id="edge7" class="edge">
<title>g&#45;&gt;h</title>
<path fill="none" stroke="#64748b" stroke-width="1.4" d="M197.05,-673.17C198.5,-667.32 200.01,-661.28 201.49,-655.31"/>
<polygon fill="#64748b" stroke="#64748b" stroke-width="1.4" points="203.83,-656.07 203.14,-648.68 199.07,-654.89 203.83,-656.07"/>
</g>
<!-- i -->
<g id="node9" class="node">
<title>i</title>
<path fill="#fef3c7" stroke="#d97706" stroke-width="1.4" d="M252.16,-525.14C252.16,-525.14 99.59,-488.69 99.59,-488.69 93.75,-487.29 93.75,-484.51 99.59,-483.11 99.59,-483.11 252.16,-446.66 252.16,-446.66 258,-445.26 269.67,-445.26 275.51,-446.66 275.51,-446.66 428.08,-483.11 428.08,-483.11 433.92,-484.51 433.92,-487.29 428.08,-488.69 428.08,-488.69 275.51,-525.14 275.51,-525.14 269.67,-526.54 258,-526.54 252.16,-525.14"/>
<text text-anchor="middle" x="263.84" y="-482.12" font-family="PingFang SC" font-size="17.00" fill="#0f172a">n &gt; tot_step_cap？</text>
</g>
<!-- h&#45;&gt;i -->
<g id="edge8" class="edge">
<title>h&#45;&gt;i</title>
<path fill="none" stroke="#64748b" stroke-width="1.4" d="M234.48,-554.47C237.58,-547.33 240.79,-539.95 243.9,-532.79"/>
<polygon fill="#64748b" stroke="#64748b" stroke-width="1.4" points="246.1,-533.88 246.64,-526.48 241.61,-531.92 246.1,-533.88"/>
</g>
<!-- i&#45;&gt;d -->
<g id="edge9" class="edge">
<title>i&#45;&gt;d</title>
<path fill="none" stroke="#64748b" stroke-width="1.4" d="M329.93,-512.45C364.96,-530.75 400.84,-559.34 400.84,-599.69 400.84,-976.53 400.84,-976.53 400.84,-976.53 400.84,-1003.59 400.84,-1033.76 400.84,-1058.42"/>
<polygon fill="#64748b" stroke="#64748b" stroke-width="1.4" points="398.39,-1058.13 400.84,-1065.13 403.29,-1058.13 398.39,-1058.13"/>
<text text-anchor="middle" x="429.34" y="-784.94" font-family="PingFang SC" font-size="14.00" fill="#475569">否，继续</text>
</g>
<!-- i&#45;&gt;j -->
<g id="edge10" class="edge">
<title>i&#45;&gt;j</title>
<path fill="none" stroke="#64748b" stroke-width="1.4" d="M291.42,-450.21C302.49,-436.29 315.47,-419.96 327.62,-404.69"/>
<polygon fill="#64748b" stroke="#64748b" stroke-width="1.4" points="329.37,-406.42 331.81,-399.42 325.53,-403.37 329.37,-406.42"/>
<text text-anchor="middle" x="329.75" y="-417.57" font-family="PingFang SC" font-size="14.00" fill="#475569">是</text>
</g>
<!-- k -->
<g id="node11" class="node">
<title>k</title>
<path fill="#ffffff" stroke="#cbd5e1" stroke-width="1.4" d="M544.92,-279.09C544.92,-279.09 192.75,-279.09 192.75,-279.09 186.75,-279.09 180.75,-273.09 180.75,-267.09 180.75,-267.09 180.75,-224.31 180.75,-224.31 180.75,-218.31 186.75,-212.31 192.75,-212.31 192.75,-212.31 544.92,-212.31 544.92,-212.31 550.92,-212.31 556.92,-218.31 556.92,-224.31 556.92,-224.31 556.92,-267.09 556.92,-267.09 556.92,-273.09 550.92,-279.09 544.92,-279.09"/>
<text text-anchor="middle" x="368.84" y="-254.3" font-family="PingFang SC" font-size="17.00" fill="#0f172a">把生成token列表decode成 predicted_answer</text>
<text text-anchor="middle" x="368.84" y="-229.55" font-family="PingFang SC" font-size="17.00" fill="#0f172a">释放本次试答的临时KV引用</text>
</g>
<!-- j&#45;&gt;k -->
<g id="edge12" class="edge">
<title>j&#45;&gt;k</title>
<path fill="none" stroke="#64748b" stroke-width="1.4" d="M368.84,-305.78C368.84,-299.93 368.84,-293.97 368.84,-288.18"/>
<polygon fill="#64748b" stroke="#64748b" stroke-width="1.4" points="371.29,-288.41 368.84,-281.41 366.39,-288.41 371.29,-288.41"/>
</g>
<!-- l -->
<g id="node12" class="node">
<title>l</title>
<path fill="#dcfce7" stroke="#16a34a" stroke-width="1.4" d="M550.92,-185.31C550.92,-185.31 186.75,-185.31 186.75,-185.31 180.75,-185.31 174.75,-179.31 174.75,-173.31 174.75,-173.31 174.75,-130.53 174.75,-130.53 174.75,-124.53 180.75,-118.53 186.75,-118.53 186.75,-118.53 550.92,-118.53 550.92,-118.53 556.92,-118.53 562.92,-124.53 562.92,-130.53 562.92,-130.53 562.92,-173.31 562.92,-173.31 562.92,-179.31 556.92,-185.31 550.92,-185.31"/>
<text text-anchor="middle" x="368.84" y="-160.52" font-family="PingFang SC" font-size="17.00" fill="#0f172a">返回字典：total_prob_max、predicted_answer</text>
<text text-anchor="middle" x="368.84" y="-135.77" font-family="PingFang SC" font-size="17.00" fill="#0f172a">token_ids、token_probs、ended_with_think</text>
</g>
<!-- k&#45;&gt;l -->
<g id="edge13" class="edge">
<title>k&#45;&gt;l</title>
<path fill="none" stroke="#64748b" stroke-width="1.4" d="M368.84,-211.82C368.84,-206.22 368.84,-200.34 368.84,-194.54"/>
<polygon fill="#64748b" stroke="#64748b" stroke-width="1.4" points="371.29,-194.68 368.84,-187.68 366.39,-194.68 371.29,-194.68"/>
</g>
<!-- m -->
<g id="node13" class="node">
<title>m</title>
<path fill="#f1f5f9" stroke="#64748b" stroke-width="1.4" d="M555.05,-91.53C555.05,-91.53 182.63,-91.53 182.63,-91.53 176.62,-91.53 170.63,-85.53 170.63,-79.53 170.63,-79.53 170.63,-12 170.63,-12 170.63,-6 176.63,0 182.63,0 182.63,0 555.05,0 555.05,0 561.05,0 567.05,-6 567.05,-12 567.05,-12 567.05,-79.53 567.05,-79.53 567.05,-85.53 561.05,-91.53 555.05,-91.53"/>
<text text-anchor="middle" x="368.84" y="-66.74" font-family="PingFang SC" font-size="17.00" fill="#0f172a">本函数不比较早停阈值，也不写实验文件</text>
<text text-anchor="middle" x="368.84" y="-41.99" font-family="PingFang SC" font-size="17.00" fill="#0f172a">调用者 method_deer() 使用分数作停止判断</text>
<text text-anchor="middle" x="368.84" y="-17.24" font-family="PingFang SC" font-size="17.00" fill="#0f172a">cap=20允许第21步；停止标记可能更早结束循环</text>
</g>
<!-- l&#45;&gt;m -->
<g id="edge14" class="edge">
<title>l&#45;&gt;m</title>
<path fill="none" stroke="#64748b" stroke-width="1.4" d="M368.84,-118.25C368.84,-112.64 368.84,-106.68 368.84,-100.68"/>
<polygon fill="#64748b" stroke="#64748b" stroke-width="1.4" points="371.29,-101.03 368.84,-94.03 366.39,-101.03 371.29,-101.03"/>
</g>
</g>
</svg>
