<?xml version="1.0" encoding="UTF-8" standalone="no"?>
<!DOCTYPE svg PUBLIC "-//W3C//DTD SVG 1.1//EN"
 "http://www.w3.org/Graphics/SVG/1.1/DTD/svg11.dtd">
<!-- Generated by graphviz version 12.2.1 (20241206.2353)
 -->
<!-- Title: G Pages: 1 -->
<svg width="1839pt" height="2395pt"
 viewBox="0.00 0.00 1018.41 1326.29" xmlns="http://www.w3.org/2000/svg" xmlns:xlink="http://www.w3.org/1999/xlink">
<g id="graph0" class="graph" transform="scale(1.80556 1.80556) rotate(0) translate(25.2 1301.09)">
<title>G</title>
<polygon fill="#f8fafc" stroke="none" points="-25.2,25.2 -25.2,-1301.09 993.21,-1301.09 993.21,25.2 -25.2,25.2"/>
<text text-anchor="middle" x="484" y="-1248.14" font-family="PingFang SC" font-size="25.00" fill="#0f172a">03 · 官方 inference.py 主入口</text>
<text text-anchor="middle" x="484" y="-1212.14" font-family="PingFang SC" font-size="25.00" fill="#0f172a">查表选方法 → 检查依赖 → 生成 → 判分 → 保存</text>
<!-- a -->
<g id="node1" class="node">
<title>a</title>
<path fill="#e0f2fe" stroke="#0284c7" stroke-width="1.4" d="M371.5,-1195.89C371.5,-1195.89 163.34,-1195.89 163.34,-1195.89 157.34,-1195.89 151.34,-1189.89 151.34,-1183.89 151.34,-1183.89 151.34,-1141.11 151.34,-1141.11 151.34,-1135.11 157.34,-1129.11 163.34,-1129.11 163.34,-1129.11 371.5,-1129.11 371.5,-1129.11 377.5,-1129.11 383.5,-1135.11 383.5,-1141.11 383.5,-1141.11 383.5,-1183.89 383.5,-1183.89 383.5,-1189.89 377.5,-1195.89 371.5,-1195.89"/>
<text text-anchor="middle" x="267.42" y="-1171.1" font-family="PingFang SC" font-size="17.00" fill="#0f172a">命令行参数 args</text>
<text text-anchor="middle" x="267.42" y="-1146.35" font-family="PingFang SC" font-size="17.00" fill="#0f172a">B = args.max_new_tokens</text>
</g>
<!-- b -->
<g id="node2" class="node">
<title>b</title>
<path fill="#ede9fe" stroke="#8b5cf6" stroke-width="1.4" d="M458.5,-1102.11C458.5,-1102.11 76.34,-1102.11 76.34,-1102.11 70.34,-1102.11 64.34,-1096.11 64.34,-1090.11 64.34,-1090.11 64.34,-1022.58 64.34,-1022.58 64.34,-1016.58 70.34,-1010.58 76.34,-1010.58 76.34,-1010.58 458.5,-1010.58 458.5,-1010.58 464.5,-1010.58 470.5,-1016.58 470.5,-1022.58 470.5,-1022.58 470.5,-1090.11 470.5,-1090.11 470.5,-1096.11 464.5,-1102.11 458.5,-1102.11"/>
<text text-anchor="middle" x="267.42" y="-1077.32" font-family="PingFang SC" font-size="17.00" fill="#0f172a">method_fn = METHOD_REGISTRY[args.method]</text>
<text text-anchor="middle" x="267.42" y="-1052.57" font-family="PingFang SC" font-size="17.00" fill="#0f172a">step&#45;by&#45;step → method_step_by_step 函数对象</text>
<text text-anchor="middle" x="267.42" y="-1027.82" font-family="PingFang SC" font-size="17.00" fill="#0f172a">此时只是选函数，尚未生成</text>
</g>
<!-- a&#45;&gt;b -->
<g id="edge1" class="edge">
<title>a&#45;&gt;b</title>
<path fill="none" stroke="#64748b" stroke-width="1.4" d="M267.42,-1128.83C267.42,-1123.22 267.42,-1117.26 267.42,-1111.26"/>
<polygon fill="#64748b" stroke="#64748b" stroke-width="1.4" points="269.87,-1111.61 267.42,-1104.61 264.97,-1111.61 269.87,-1111.61"/>
</g>
<!-- c -->
<g id="node3" class="node">
<title>c</title>
<path fill="#ffffff" stroke="#cbd5e1" stroke-width="1.4" d="M448.75,-983.58C448.75,-983.58 86.09,-983.58 86.09,-983.58 80.09,-983.58 74.09,-977.58 74.09,-971.58 74.09,-971.58 74.09,-904.05 74.09,-904.05 74.09,-898.05 80.09,-892.05 86.09,-892.05 86.09,-892.05 448.75,-892.05 448.75,-892.05 454.75,-892.05 460.75,-898.05 460.75,-904.05 460.75,-904.05 460.75,-971.58 460.75,-971.58 460.75,-977.58 454.75,-983.58 448.75,-983.58"/>
<text text-anchor="middle" x="267.42" y="-958.79" font-family="PingFang SC" font-size="17.00" fill="#0f172a">按 dataset 选择 validate_fn</text>
<text text-anchor="middle" x="267.42" y="-934.04" font-family="PingFang SC" font-size="17.00" fill="#0f172a">若用 LLM 判分：partial 预先绑定客户端等参数</text>
<text text-anchor="middle" x="267.42" y="-909.29" font-family="PingFang SC" font-size="17.00" fill="#0f172a">加载数据、模型；读取已处理项与依赖缓存</text>
</g>
<!-- b&#45;&gt;c -->
<g id="edge2" class="edge">
<title>b&#45;&gt;c</title>
<path fill="none" stroke="#64748b" stroke-width="1.4" d="M267.42,-1010.29C267.42,-1004.58 267.42,-998.68 267.42,-992.84"/>
<polygon fill="#64748b" stroke="#64748b" stroke-width="1.4" points="269.87,-992.87 267.42,-985.87 264.97,-992.87 269.87,-992.87"/>
</g>
<!-- d -->
<g id="node4" class="node">
<title>d</title>
<path fill="#fef3c7" stroke="#d97706" stroke-width="1.4" d="M255.57,-863.19C255.57,-863.19 11.85,-824.88 11.85,-824.88 5.93,-823.95 5.93,-822.09 11.85,-821.16 11.85,-821.16 255.57,-782.85 255.57,-782.85 261.49,-781.92 273.35,-781.92 279.27,-782.85 279.27,-782.85 522.99,-821.16 522.99,-821.16 528.91,-822.09 528.91,-823.95 522.99,-824.88 522.99,-824.88 279.27,-863.19 279.27,-863.19 273.35,-864.12 261.49,-864.12 255.57,-863.19"/>
<text text-anchor="middle" x="267.42" y="-819.24" font-family="PingFang SC" font-size="17.00" fill="#0f172a">方法有依赖，但整份缓存为空？</text>
</g>
<!-- c&#45;&gt;d -->
<g id="edge3" class="edge">
<title>c&#45;&gt;d</title>
<path fill="none" stroke="#64748b" stroke-width="1.4" d="M267.42,-891.59C267.42,-885.88 267.42,-880 267.42,-874.22"/>
<polygon fill="#64748b" stroke="#64748b" stroke-width="1.4" points="269.87,-874.36 267.42,-867.36 264.97,-874.36 269.87,-874.36"/>
</g>
<!-- e -->
<g id="node5" class="node">
<title>e</title>
<path fill="#fee2e2" stroke="#dc2626" stroke-width="1.4" d="M325,-734.74C325,-734.74 167.84,-734.74 167.84,-734.74 161.84,-734.74 155.84,-728.74 155.84,-722.74 155.84,-722.74 155.84,-679.96 155.84,-679.96 155.84,-673.96 161.84,-667.96 167.84,-667.96 167.84,-667.96 325,-667.96 325,-667.96 331,-667.96 337,-673.96 337,-679.96 337,-679.96 337,-722.74 337,-722.74 337,-728.74 331,-734.74 325,-734.74"/>
<text text-anchor="middle" x="246.42" y="-709.95" font-family="PingFang SC" font-size="17.00" fill="#0f172a">抛出 RuntimeError</text>
<text text-anchor="middle" x="246.42" y="-685.2" font-family="PingFang SC" font-size="17.00" fill="#0f172a">提示先运行前置方法</text>
</g>
<!-- d&#45;&gt;e -->
<g id="edge4" class="edge">
<title>d&#45;&gt;e</title>
<path fill="none" stroke="#64748b" stroke-width="1.4" d="M260.37,-781.84C258.22,-769.6 255.86,-756.13 253.69,-743.8"/>
<polygon fill="#64748b" stroke="#64748b" stroke-width="1.4" points="256.15,-743.63 252.53,-737.16 251.32,-744.48 256.15,-743.63"/>
<text text-anchor="middle" x="264.67" y="-754.69" font-family="PingFang SC" font-size="14.00" fill="#475569">是</text>
</g>
<!-- f -->
<g id="node6" class="node">
<title>f</title>
<path fill="#ffffff" stroke="#cbd5e1" stroke-width="1.4" d="M604.5,-734.74C604.5,-734.74 372.34,-734.74 372.34,-734.74 366.34,-734.74 360.34,-728.74 360.34,-722.74 360.34,-722.74 360.34,-679.96 360.34,-679.96 360.34,-673.96 366.34,-667.96 372.34,-667.96 372.34,-667.96 604.5,-667.96 604.5,-667.96 610.5,-667.96 616.5,-673.96 616.5,-679.96 616.5,-679.96 616.5,-722.74 616.5,-722.74 616.5,-728.74 610.5,-734.74 604.5,-734.74"/>
<text text-anchor="middle" x="488.42" y="-709.95" font-family="PingFang SC" font-size="17.00" fill="#0f172a">遍历 (sample_idx, rollout_idx)</text>
<text text-anchor="middle" x="488.42" y="-685.2" font-family="PingFang SC" font-size="17.00" fill="#0f172a">已处理项跳过；进入下一项</text>
</g>
<!-- d&#45;&gt;f -->
<g id="edge5" class="edge">
<title>d&#45;&gt;f</title>
<path fill="none" stroke="#64748b" stroke-width="1.4" d="M326.64,-789.95C355.4,-774.38 390.11,-755.59 419.99,-739.4"/>
<polygon fill="#64748b" stroke="#64748b" stroke-width="1.4" points="421.03,-741.63 426.01,-736.14 418.69,-737.32 421.03,-741.63"/>
<text text-anchor="middle" x="411.34" y="-754.69" font-family="PingFang SC" font-size="14.00" fill="#475569">否</text>
</g>
<!-- g -->
<g id="node7" class="node">
<title>g</title>
<path fill="#fef3c7" stroke="#d97706" stroke-width="1.4" d="M476.55,-619.96C476.55,-619.96 215.62,-581.43 215.62,-581.43 209.69,-580.56 209.69,-578.8 215.62,-577.93 215.62,-577.93 476.55,-539.4 476.55,-539.4 482.48,-538.53 494.36,-538.53 500.29,-539.4 500.29,-539.4 761.22,-577.93 761.22,-577.93 767.15,-578.8 767.15,-580.56 761.22,-581.43 761.22,-581.43 500.29,-619.96 500.29,-619.96 494.36,-620.83 482.48,-620.83 476.55,-619.96"/>
<text text-anchor="middle" x="488.42" y="-575.9" font-family="PingFang SC" font-size="17.00" fill="#0f172a">本项需要依赖，且缓存缺这一项？</text>
</g>
<!-- f&#45;&gt;g -->
<g id="edge6" class="edge">
<title>f&#45;&gt;g</title>
<path fill="none" stroke="#64748b" stroke-width="1.4" d="M488.42,-667.65C488.42,-656.29 488.42,-643.27 488.42,-630.83"/>
<polygon fill="#64748b" stroke="#64748b" stroke-width="1.4" points="490.87,-631.02 488.42,-624.02 485.97,-631.02 490.87,-631.02"/>
<text text-anchor="middle" x="516.92" y="-641.66" font-family="PingFang SC" font-size="14.00" fill="#475569">未处理项</text>
</g>
<!-- h -->
<g id="node8" class="node">
<title>h</title>
<path fill="#f1f5f9" stroke="#64748b" stroke-width="1.4" d="M554.63,-491.4C554.63,-491.4 380.21,-491.4 380.21,-491.4 374.21,-491.4 368.21,-485.4 368.21,-479.4 368.21,-479.4 368.21,-436.62 368.21,-436.62 368.21,-430.62 374.21,-424.62 380.21,-424.62 380.21,-424.62 554.63,-424.62 554.63,-424.62 560.63,-424.62 566.63,-430.62 566.63,-436.62 566.63,-436.62 566.63,-479.4 566.63,-479.4 566.63,-485.4 560.63,-491.4 554.63,-491.4"/>
<text text-anchor="middle" x="467.42" y="-466.61" font-family="PingFang SC" font-size="17.00" fill="#0f172a">打印警告并跳过这一项</text>
<text text-anchor="middle" x="467.42" y="-441.86" font-family="PingFang SC" font-size="17.00" fill="#0f172a">继续处理下一项</text>
</g>
<!-- g&#45;&gt;h -->
<g id="edge7" class="edge">
<title>g&#45;&gt;h</title>
<path fill="none" stroke="#64748b" stroke-width="1.4" d="M481.37,-538.5C479.22,-526.26 476.86,-512.79 474.69,-500.46"/>
<polygon fill="#64748b" stroke="#64748b" stroke-width="1.4" points="477.15,-500.29 473.53,-493.82 472.32,-501.14 477.15,-500.29"/>
<text text-anchor="middle" x="485.67" y="-511.35" font-family="PingFang SC" font-size="14.00" fill="#475569">是</text>
</g>
<!-- i -->
<g id="node9" class="node">
<title>i</title>
<path fill="#ede9fe" stroke="#8b5cf6" stroke-width="1.4" d="M900.88,-491.4C900.88,-491.4 601.96,-491.4 601.96,-491.4 595.96,-491.4 589.96,-485.4 589.96,-479.4 589.96,-479.4 589.96,-436.62 589.96,-436.62 589.96,-430.62 595.96,-424.62 601.96,-424.62 601.96,-424.62 900.88,-424.62 900.88,-424.62 906.88,-424.62 912.88,-430.62 912.88,-436.62 912.88,-436.62 912.88,-479.4 912.88,-479.4 912.88,-485.4 906.88,-491.4 900.88,-491.4"/>
<text text-anchor="middle" x="751.42" y="-466.61" font-family="PingFang SC" font-size="17.00" fill="#0f172a">调用 method_fn(...) → method_output</text>
<text text-anchor="middle" x="751.42" y="-441.86" font-family="PingFang SC" font-size="17.00" fill="#0f172a">有依赖时额外传入 sample_response</text>
</g>
<!-- g&#45;&gt;i -->
<g id="edge8" class="edge">
<title>g&#45;&gt;i</title>
<path fill="none" stroke="#64748b" stroke-width="1.4" d="M557.18,-547.39C592.13,-531.49 634.8,-512.08 671.24,-495.5"/>
<polygon fill="#64748b" stroke="#64748b" stroke-width="1.4" points="672.11,-497.79 677.46,-492.66 670.08,-493.33 672.11,-497.79"/>
<text text-anchor="middle" x="658.34" y="-511.35" font-family="PingFang SC" font-size="14.00" fill="#475569">否</text>
</g>
<!-- j -->
<g id="node10" class="node">
<title>j</title>
<path fill="#ede9fe" stroke="#8b5cf6" stroke-width="1.4" d="M903.88,-397.62C903.88,-397.62 598.96,-397.62 598.96,-397.62 592.96,-397.62 586.96,-391.62 586.96,-385.62 586.96,-385.62 586.96,-342.84 586.96,-342.84 586.96,-336.84 592.96,-330.84 598.96,-330.84 598.96,-330.84 903.88,-330.84 903.88,-330.84 909.88,-330.84 915.88,-336.84 915.88,-342.84 915.88,-342.84 915.88,-385.62 915.88,-385.62 915.88,-391.62 909.88,-397.62 903.88,-397.62"/>
<text text-anchor="middle" x="751.42" y="-372.83" font-family="PingFang SC" font-size="17.00" fill="#0f172a">validate_fn(response, sample[answer])</text>
<text text-anchor="middle" x="751.42" y="-348.08" font-family="PingFang SC" font-size="17.00" fill="#0f172a">得到 validation</text>
</g>
<!-- i&#45;&gt;j -->
<g id="edge9" class="edge">
<title>i&#45;&gt;j</title>
<path fill="none" stroke="#64748b" stroke-width="1.4" d="M751.42,-424.13C751.42,-418.53 751.42,-412.65 751.42,-406.85"/>
<polygon fill="#64748b" stroke="#64748b" stroke-width="1.4" points="753.87,-406.99 751.42,-399.99 748.97,-406.99 753.87,-406.99"/>
</g>
<!-- k -->
<g id="node11" class="node">
<title>k</title>
<path fill="#ffffff" stroke="#cbd5e1" stroke-width="1.4" d="M898.26,-303.84C898.26,-303.84 604.59,-303.84 604.59,-303.84 598.59,-303.84 592.59,-297.84 592.59,-291.84 592.59,-291.84 592.59,-249.06 592.59,-249.06 592.59,-243.06 598.59,-237.06 604.59,-237.06 604.59,-237.06 898.26,-237.06 898.26,-237.06 904.26,-237.06 910.26,-243.06 910.26,-249.06 910.26,-249.06 910.26,-291.84 910.26,-291.84 910.26,-297.84 904.26,-303.84 898.26,-303.84"/>
<text text-anchor="middle" x="751.42" y="-279.05" font-family="PingFang SC" font-size="17.00" fill="#0f172a">组装 result 字典</text>
<text text-anchor="middle" x="751.42" y="-254.3" font-family="PingFang SC" font-size="17.00" fill="#0f172a">方法输出 + 判分 + 参数 + 样本与编号</text>
</g>
<!-- j&#45;&gt;k -->
<g id="edge10" class="edge">
<title>j&#45;&gt;k</title>
<path fill="none" stroke="#64748b" stroke-width="1.4" d="M751.42,-330.35C751.42,-324.75 751.42,-318.87 751.42,-313.07"/>
<polygon fill="#64748b" stroke="#64748b" stroke-width="1.4" points="753.87,-313.21 751.42,-306.21 748.97,-313.21 753.87,-313.21"/>
</g>
<!-- l -->
<g id="node12" class="node">
<title>l</title>
<path fill="#dcfce7" stroke="#16a34a" stroke-width="1.4" d="M885.88,-210.06C885.88,-210.06 616.96,-210.06 616.96,-210.06 610.96,-210.06 604.96,-204.06 604.96,-198.06 604.96,-198.06 604.96,-130.53 604.96,-130.53 604.96,-124.53 610.96,-118.53 616.96,-118.53 616.96,-118.53 885.88,-118.53 885.88,-118.53 891.88,-118.53 897.88,-124.53 897.88,-130.53 897.88,-130.53 897.88,-198.06 897.88,-198.06 897.88,-204.06 891.88,-210.06 885.88,-210.06"/>
<text text-anchor="middle" x="751.42" y="-185.27" font-family="PingFang SC" font-size="17.00" fill="#0f172a">f.write(json.dumps(result) + 换行)</text>
<text text-anchor="middle" x="751.42" y="-160.52" font-family="PingFang SC" font-size="17.00" fill="#0f172a">f.flush() → 继续下一项</text>
<text text-anchor="middle" x="751.42" y="-135.77" font-family="PingFang SC" font-size="17.00" fill="#0f172a">输出文件：每行一个结果的 JSONL</text>
</g>
<!-- k&#45;&gt;l -->
<g id="edge11" class="edge">
<title>k&#45;&gt;l</title>
<path fill="none" stroke="#64748b" stroke-width="1.4" d="M751.42,-236.78C751.42,-231.17 751.42,-225.21 751.42,-219.21"/>
<polygon fill="#64748b" stroke="#64748b" stroke-width="1.4" points="753.87,-219.56 751.42,-212.56 748.97,-219.56 753.87,-219.56"/>
</g>
<!-- m -->
<g id="node13" class="node">
<title>m</title>
<path fill="#f1f5f9" stroke="#64748b" stroke-width="1.4" d="M956.01,-91.53C956.01,-91.53 546.84,-91.53 546.84,-91.53 540.84,-91.53 534.84,-85.53 534.84,-79.53 534.84,-79.53 534.84,-12 534.84,-12 534.84,-6 540.84,0 546.84,0 546.84,0 956.01,0 956.01,0 962.01,0 968.01,-6 968.01,-12 968.01,-12 968.01,-79.53 968.01,-79.53 968.01,-85.53 962.01,-91.53 956.01,-91.53"/>
<text text-anchor="middle" x="751.42" y="-66.74" font-family="PingFang SC" font-size="17.00" fill="#0f172a">基础依赖：step&#45;by&#45;step → step&#45;by&#45;step&#45;forceans</text>
<text text-anchor="middle" x="751.42" y="-41.99" font-family="PingFang SC" font-size="17.00" fill="#0f172a">再分为 deer / codestop 两支；两者不是前后依赖</text>
<text text-anchor="middle" x="751.42" y="-17.24" font-family="PingFang SC" font-size="17.00" fill="#0f172a">flush 刷出 Python 缓冲，不等同于 fsync 持久化保证</text>
</g>
<!-- l&#45;&gt;m -->
<g id="edge12" class="edge">
<title>l&#45;&gt;m</title>
<path fill="none" stroke="#64748b" stroke-width="1.4" d="M751.42,-118.24C751.42,-112.53 751.42,-106.63 751.42,-100.79"/>
<polygon fill="#64748b" stroke="#64748b" stroke-width="1.4" points="753.87,-100.82 751.42,-93.82 748.97,-100.82 753.87,-100.82"/>
</g>
</g>
</svg>
