<?xml version="1.0" encoding="UTF-8" standalone="no"?>
<!DOCTYPE svg PUBLIC "-//W3C//DTD SVG 1.1//EN"
 "http://www.w3.org/Graphics/SVG/1.1/DTD/svg11.dtd">
<!-- Generated by graphviz version 12.2.1 (20241206.2353)
 -->
<!-- Title: Cache Pages: 1 -->
<svg width="1240pt" height="1189pt"
 viewBox="0.00 0.00 1240.33 1188.65" xmlns="http://www.w3.org/2000/svg" xmlns:xlink="http://www.w3.org/1999/xlink">
<g id="graph0" class="graph" transform="scale(1 1) rotate(0) translate(25.2 1163.45)">
<title>Cache</title>
<polygon fill="#f8fafc" stroke="none" points="-25.2,25.2 -25.2,-1163.45 1215.12,-1163.45 1215.12,25.2 -25.2,25.2"/>
<text text-anchor="middle" x="594.96" y="-1109.55" font-family="PingFang SC" font-size="26.00" fill="#0f172a">展开第④步：两种方式准备同一个检查点的上下文</text>
<text text-anchor="middle" x="594.96" y="-1072.8" font-family="PingFang SC" font-size="26.00" fill="#0f172a">cp_cache 控制检查点之间的前缀 KV 复用</text>
<!-- cp -->
<g id="node1" class="node">
<title>cp</title>
<polygon fill="#ede9fe" stroke="#8b5cf6" stroke-width="1.4" points="395.65,-1056.75 223.6,-1010.4 395.65,-964.05 567.7,-1010.4 395.65,-1056.75"/>
<text text-anchor="middle" x="395.65" y="-1006.63" font-family="PingFang SC" font-size="17.00" fill="#0f172a">cp_cache？ &#160;[146]</text>
</g>
<!-- full -->
<g id="node2" class="node">
<title>full</title>
<path fill="#e0f2fe" stroke="#0284c7" stroke-width="1.4" d="M333.3,-893.12C333.3,-893.12 12,-893.12 12,-893.12 6,-893.12 0,-887.12 0,-881.12 0,-881.12 0,-759.78 0,-759.78 0,-753.78 6,-747.78 12,-747.78 12,-747.78 333.3,-747.78 333.3,-747.78 339.3,-747.78 345.3,-753.78 345.3,-759.78 345.3,-759.78 345.3,-881.12 345.3,-881.12 345.3,-887.12 339.3,-893.12 333.3,-893.12"/>
<text text-anchor="middle" x="172.65" y="-866.18" font-family="PingFang SC" font-size="17.00" fill="#0f172a">False：当前教学配置 &#160;[171]</text>
<text text-anchor="middle" x="172.65" y="-841.43" font-family="PingFang SC" font-size="17.00" fill="#0f172a">每个检查点重新拼出完整输入</text>
<text text-anchor="middle" x="172.65" y="-816.68" font-family="PingFang SC" font-size="17.00" fill="#0f172a">prompt_ids</text>
<text text-anchor="middle" x="172.65" y="-791.93" font-family="PingFang SC" font-size="17.00" fill="#0f172a">+ sample_response_ids[:stop_token_idx]</text>
<text text-anchor="middle" x="172.65" y="-767.18" font-family="PingFang SC" font-size="17.00" fill="#0f172a">+ trial_answer_ids[0].tolist()</text>
</g>
<!-- cp&#45;&gt;full -->
<g id="edge1" class="edge">
<title>cp&#45;&gt;full</title>
<path fill="none" stroke="#0284c7" stroke-width="1.5" d="M354.49,-974.71C329.44,-953.6 296.38,-925.74 265.33,-899.57"/>
<polygon fill="#0284c7" stroke="#0284c7" stroke-width="1.5" points="267.07,-897.6 259.65,-894.77 263.69,-901.61 267.07,-897.6"/>
<text text-anchor="middle" x="333.65" y="-934.75" font-family="PingFang SC" font-size="14.00" fill="#475569">False</text>
</g>
<!-- choose -->
<g id="node3" class="node">
<title>choose</title>
<polygon fill="#ede9fe" stroke="#8b5cf6" stroke-width="1.4" points="619.65,-911.8 380.85,-820.45 619.65,-729.1 858.45,-820.45 619.65,-911.8"/>
<text text-anchor="middle" x="619.65" y="-840.12" font-family="PingFang SC" font-size="16.00" fill="#0f172a">True：需要更新前缀缓存</text>
<text text-anchor="middle" x="619.65" y="-816.88" font-family="PingFang SC" font-size="16.00" fill="#0f172a">prev_stop_token_idx == 0？</text>
<text text-anchor="middle" x="619.65" y="-793.62" font-family="PingFang SC" font-size="16.00" fill="#0f172a">[148]</text>
</g>
<!-- cp&#45;&gt;choose -->
<g id="edge2" class="edge">
<title>cp&#45;&gt;choose</title>
<path fill="none" stroke="#9333ea" stroke-width="1.5" d="M437,-974.71C465.32,-950.94 503.83,-918.63 538.2,-889.8"/>
<polygon fill="#9333ea" stroke="#9333ea" stroke-width="1.5" points="539.66,-891.99 543.72,-885.16 536.29,-887.97 539.66,-891.99"/>
<text text-anchor="middle" x="502.21" y="-934.75" font-family="PingFang SC" font-size="14.00" fill="#475569">True</text>
</g>
<!-- nocachecall -->
<g id="node7" class="node">
<title>nocachecall</title>
<path fill="#e0f2fe" stroke="#0284c7" stroke-width="1.4" d="M291.67,-589.75C291.67,-589.75 107.62,-589.75 107.62,-589.75 101.62,-589.75 95.62,-583.75 95.62,-577.75 95.62,-577.75 95.62,-505.9 95.62,-505.9 95.62,-499.9 101.62,-493.9 107.62,-493.9 107.62,-493.9 291.67,-493.9 291.67,-493.9 297.67,-493.9 303.67,-499.9 303.67,-505.9 303.67,-505.9 303.67,-577.75 303.67,-577.75 303.67,-583.75 297.67,-589.75 291.67,-589.75"/>
<text text-anchor="middle" x="199.65" y="-562.8" font-family="PingFang SC" font-size="17.00" fill="#0f172a">调用试答函数 &#160;[173]</text>
<text text-anchor="middle" x="199.65" y="-538.05" font-family="PingFang SC" font-size="17.00" fill="#0f172a">输入：完整 token 张量</text>
<text text-anchor="middle" x="199.65" y="-513.3" font-family="PingFang SC" font-size="17.00" fill="#0f172a">传入的前缀缓存：None</text>
</g>
<!-- full&#45;&gt;nocachecall -->
<g id="edge7" class="edge">
<title>full&#45;&gt;nocachecall</title>
<path fill="none" stroke="#64748b" stroke-width="1.5" d="M179.67,-747.49C184.17,-701.45 189.92,-642.56 194.09,-599.78"/>
<polygon fill="#64748b" stroke="#64748b" stroke-width="1.5" points="196.7,-600.07 194.82,-592.35 191.48,-599.56 196.7,-600.07"/>
</g>
<!-- first -->
<g id="node4" class="node">
<title>first</title>
<path fill="white" stroke="#cbd5e1" stroke-width="1.4" d="M653.42,-676.85C653.42,-676.85 239.87,-676.85 239.87,-676.85 233.87,-676.85 227.87,-670.85 227.87,-664.85 227.87,-664.85 227.87,-617.75 227.87,-617.75 227.87,-611.75 233.87,-605.75 239.87,-605.75 239.87,-605.75 653.42,-605.75 653.42,-605.75 659.42,-605.75 665.42,-611.75 665.42,-617.75 665.42,-617.75 665.42,-664.85 665.42,-664.85 665.42,-670.85 659.42,-676.85 653.42,-676.85"/>
<text text-anchor="middle" x="446.65" y="-649.9" font-family="PingFang SC" font-size="17.00" fill="#0f172a">是：输入题目 + 当前推理前缀 &#160;[149]</text>
<text text-anchor="middle" x="446.65" y="-625.15" font-family="PingFang SC" font-size="17.00" fill="#0f172a">prompt_ids + sample_response_ids[:stop_token_idx]</text>
</g>
<!-- choose&#45;&gt;first -->
<g id="edge3" class="edge">
<title>choose&#45;&gt;first</title>
<path fill="none" stroke="#64748b" stroke-width="1.5" d="M555.23,-753.49C532.45,-730.15 507.47,-704.58 487.22,-683.84"/>
<polygon fill="#64748b" stroke="#64748b" stroke-width="1.5" points="489.25,-682.16 482.13,-678.63 485.49,-685.83 489.25,-682.16"/>
<text text-anchor="middle" x="519.69" y="-699.8" font-family="PingFang SC" font-size="14.00" fill="#475569">是</text>
</g>
<!-- delta -->
<g id="node5" class="node">
<title>delta</title>
<path fill="white" stroke="#cbd5e1" stroke-width="1.4" d="M1177.92,-676.85C1177.92,-676.85 713.38,-676.85 713.38,-676.85 707.38,-676.85 701.38,-670.85 701.38,-664.85 701.38,-664.85 701.38,-617.75 701.38,-617.75 701.38,-611.75 707.38,-605.75 713.38,-605.75 713.38,-605.75 1177.92,-605.75 1177.92,-605.75 1183.92,-605.75 1189.92,-611.75 1189.92,-617.75 1189.92,-617.75 1189.92,-664.85 1189.92,-664.85 1189.92,-670.85 1183.92,-676.85 1177.92,-676.85"/>
<text text-anchor="middle" x="945.65" y="-649.9" font-family="PingFang SC" font-size="17.00" fill="#0f172a">否：只输入新增加的旧推理片段 &#160;[151]</text>
<text text-anchor="middle" x="945.65" y="-625.15" font-family="PingFang SC" font-size="17.00" fill="#0f172a">sample_response_ids[prev_stop_token_idx:stop_token_idx]</text>
</g>
<!-- choose&#45;&gt;delta -->
<g id="edge4" class="edge">
<title>choose&#45;&gt;delta</title>
<path fill="none" stroke="#64748b" stroke-width="1.5" d="M717.46,-766.3C767.43,-739.15 827.18,-706.68 873,-681.78"/>
<polygon fill="#64748b" stroke="#64748b" stroke-width="1.5" points="874.06,-684.19 879.4,-678.3 871.55,-679.58 874.06,-684.19"/>
<text text-anchor="middle" x="856.45" y="-699.8" font-family="PingFang SC" font-size="14.00" fill="#475569">否</text>
</g>
<!-- prefill -->
<g id="node6" class="node">
<title>prefill</title>
<path fill="#f3e8ff" stroke="#9333ea" stroke-width="1.4" d="M599.05,-477.9C599.05,-477.9 294.25,-477.9 294.25,-477.9 288.25,-477.9 282.25,-471.9 282.25,-465.9 282.25,-465.9 282.25,-369.3 282.25,-369.3 282.25,-363.3 288.25,-357.3 294.25,-357.3 294.25,-357.3 599.05,-357.3 599.05,-357.3 605.05,-357.3 611.05,-363.3 611.05,-369.3 611.05,-369.3 611.05,-465.9 611.05,-465.9 611.05,-471.9 605.05,-477.9 599.05,-477.9"/>
<text text-anchor="middle" x="446.65" y="-450.95" font-family="PingFang SC" font-size="17.00" fill="#0f172a">更新位置并前向计算 &#160;[152–159]</text>
<text text-anchor="middle" x="446.65" y="-426.2" font-family="PingFang SC" font-size="17.00" fill="#0f172a">prev_stop_token_idx = stop_token_idx</text>
<text text-anchor="middle" x="446.65" y="-401.45" font-family="PingFang SC" font-size="17.00" fill="#0f172a">缓存 → 模型设备；model(...) 更新 KV</text>
<text text-anchor="middle" x="446.65" y="-376.7" font-family="PingFang SC" font-size="17.00" fill="#0f172a">更新后的前缀缓存 → CPU 保存</text>
</g>
<!-- first&#45;&gt;prefill -->
<g id="edge5" class="edge">
<title>first&#45;&gt;prefill</title>
<path fill="none" stroke="#64748b" stroke-width="1.5" d="M446.65,-605.66C446.65,-574.22 446.65,-526.94 446.65,-487.78"/>
<polygon fill="#64748b" stroke="#64748b" stroke-width="1.5" points="449.28,-487.78 446.65,-480.28 444.03,-487.78 449.28,-487.78"/>
</g>
<!-- delta&#45;&gt;prefill -->
<g id="edge6" class="edge">
<title>delta&#45;&gt;prefill</title>
<path fill="none" stroke="#64748b" stroke-width="1.5" d="M866.86,-605.29C792.7,-572.35 679.9,-522.23 589.83,-482.21"/>
<polygon fill="#64748b" stroke="#64748b" stroke-width="1.5" points="590.9,-479.82 582.98,-479.17 588.77,-484.62 590.9,-479.82"/>
</g>
<!-- cachecall -->
<g id="node8" class="node">
<title>cachecall</title>
<path fill="#f3e8ff" stroke="#9333ea" stroke-width="1.4" d="M574.05,-324.3C574.05,-324.3 293.25,-324.3 293.25,-324.3 287.25,-324.3 281.25,-318.3 281.25,-312.3 281.25,-312.3 281.25,-240.45 281.25,-240.45 281.25,-234.45 287.25,-228.45 293.25,-228.45 293.25,-228.45 574.05,-228.45 574.05,-228.45 580.05,-228.45 586.05,-234.45 586.05,-240.45 586.05,-240.45 586.05,-312.3 586.05,-312.3 586.05,-318.3 580.05,-324.3 574.05,-324.3"/>
<text text-anchor="middle" x="433.65" y="-297.35" font-family="PingFang SC" font-size="17.00" fill="#0f172a">调用试答函数 &#160;[166]</text>
<text text-anchor="middle" x="433.65" y="-272.6" font-family="PingFang SC" font-size="17.00" fill="#0f172a">输入：trial_answer_ids</text>
<text text-anchor="middle" x="433.65" y="-247.85" font-family="PingFang SC" font-size="17.00" fill="#0f172a">另传入：已有题目和推理的 KV 缓存</text>
</g>
<!-- prefill&#45;&gt;cachecall -->
<g id="edge8" class="edge">
<title>prefill&#45;&gt;cachecall</title>
<path fill="none" stroke="#64748b" stroke-width="1.5" d="M441.1,-357.15C440.38,-349.46 439.65,-341.6 438.93,-333.96"/>
<polygon fill="#64748b" stroke="#64748b" stroke-width="1.5" points="441.57,-333.91 438.25,-326.68 436.34,-334.39 441.57,-333.91"/>
</g>
<!-- result -->
<g id="node9" class="node">
<title>result</title>
<path fill="#dcfce7" stroke="#16a34a" stroke-width="1.4" d="M389.67,-195.45C389.67,-195.45 79.62,-195.45 79.62,-195.45 73.63,-195.45 67.62,-189.45 67.62,-183.45 67.62,-183.45 67.62,-136.35 67.62,-136.35 67.62,-130.35 73.62,-124.35 79.62,-124.35 79.62,-124.35 389.67,-124.35 389.67,-124.35 395.67,-124.35 401.67,-130.35 401.67,-136.35 401.67,-136.35 401.67,-183.45 401.67,-183.45 401.67,-189.45 395.67,-195.45 389.67,-195.45"/>
<text text-anchor="middle" x="234.65" y="-168.5" font-family="PingFang SC" font-size="17.00" fill="#0f172a">两条路径均返回 prob_result</text>
<text text-anchor="middle" x="234.65" y="-143.75" font-family="PingFang SC" font-size="17.00" fill="#0f172a">回到总流程：记录 → 判断是否提前停止</text>
</g>
<!-- nocachecall&#45;&gt;result -->
<g id="edge9" class="edge">
<title>nocachecall&#45;&gt;result</title>
<path fill="none" stroke="#64748b" stroke-width="1.5" d="M204.01,-493.48C210.82,-419.57 223.88,-277.81 230.53,-205.58"/>
<polygon fill="#64748b" stroke="#64748b" stroke-width="1.5" points="233.15,-205.83 231.22,-198.12 227.92,-205.35 233.15,-205.83"/>
</g>
<!-- cachecall&#45;&gt;result -->
<g id="edge10" class="edge">
<title>cachecall&#45;&gt;result</title>
<path fill="none" stroke="#64748b" stroke-width="1.5" d="M351.27,-227.99C335.48,-218.91 319.1,-209.48 303.78,-200.67"/>
<polygon fill="#64748b" stroke="#64748b" stroke-width="1.5" points="305.17,-198.44 297.36,-196.97 302.55,-202.99 305.17,-198.44"/>
</g>
<!-- note -->
<g id="node10" class="node">
<title>note</title>
<path fill="#fff7ed" stroke="#fb923c" stroke-width="1.4" d="M406.17,-91.35C406.17,-91.35 63.13,-91.35 63.13,-91.35 57.13,-91.35 51.12,-85.35 51.12,-79.35 51.12,-79.35 51.12,-12 51.12,-12 51.12,-6 57.12,0 63.12,0 63.12,0 406.17,0 406.17,0 412.17,0 418.17,-6 418.17,-12 418.17,-12 418.17,-79.35 418.17,-79.35 418.17,-85.35 412.17,-91.35 406.17,-91.35"/>
<text text-anchor="middle" x="234.65" y="-65.35" font-family="PingFang SC" font-size="16.00" fill="#0f172a">注意：False 不代表试答内部完全禁用 KV。</text>
<text text-anchor="middle" x="234.65" y="-42.1" font-family="PingFang SC" font-size="16.00" fill="#0f172a">试答函数内部仍会逐 token 更新自己的 KV；</text>
<text text-anchor="middle" x="234.65" y="-18.85" font-family="PingFang SC" font-size="16.00" fill="#0f172a">True 路径还会复制传入缓存，保护原推理前缀。</text>
</g>
<!-- result&#45;&gt;note -->
<g id="edge11" class="edge">
<title>result&#45;&gt;note</title>
<path fill="none" stroke="#64748b" stroke-width="1.5" stroke-dasharray="5,2" d="M234.65,-124.01C234.65,-113.71 234.65,-102.3 234.65,-91.47"/>
</g>
</g>
</svg>
